<svg width="101" height="101" viewBox="0 0 101 101" fill="none" xmlns="http://www.w3.org/2000/svg">
<circle cx="50.5" cy="50.5" r="50.5" fill="#F9E4DC"/>
<path fill-rule="evenodd" clip-rule="evenodd" d="M50.0001 65.8334C58.7446 65.8334 65.8334 58.7446 65.8334 50.0001C65.8334 41.2556 58.7446 34.1667 50.0001 34.1667C41.2556 34.1667 34.1667 41.2556 34.1667 50.0001C34.1667 58.7446 41.2556 65.8334 50.0001 65.8334Z" stroke="#FF8964"/>
<path fill-rule="evenodd" clip-rule="evenodd" d="M50.0001 64.25C50.0001 64.25 56.3334 59.0682 56.3334 50C56.3334 40.9318 50.0001 35.75 50.0001 35.75C50.0001 35.75 43.6667 40.9318 43.6667 50C43.6667 59.0682 50.0001 64.25 50.0001 64.25Z" stroke="#FF8964"/>
<path d="M34.9584 45.2501H65.0417" stroke="#FF8964" stroke-linecap="round"/>
<path d="M34.9584 54.7501H65.0417" stroke="#FF8964" stroke-linecap="round"/>
</svg>
